# MagicaVoxel @ Ephtracy

# group
o 

# material
mtllib bluepot.mtl
usemtl palette

# normals
vn -1 0 0
vn 1 0 0
vn 0 0 1
vn 0 0 -1
vn 0 -1 0
vn 0 1 0

# texcoords
vt 0.0917969 0.5
vt 0.658203 0.5
vt 0.662109 0.5
vt 0.806641 0.5
vt 0.951172 0.5

# verts
v -1 1.2 2
v -1 1.2 1
v -1 1.3 2
v -1 1.3 1.8
v -1 1.3 1.7
v -1 1.3 1.4
v -1 1.3 1.2
v -1 1.3 1
v -1 1.4 1.8
v -1 1.4 1.7
v -1 1.4 1.3
v -1 1.4 1.2
v -1 1.5 1.4
v -1 1.5 1.3
v -0.9 0.6 1.9
v -0.9 0.6 1.7
v -0.9 0.6 1.3
v -0.9 0.6 1.1
v -0.9 0.9 1.7
v -0.9 0.9 1.3
v -0.9 1.1 1.9
v -0.9 1.1 1.1
v -0.9 1.2 1.9
v -0.9 1.2 1.1
v -0.9 1.3 1.9
v -0.9 1.3 1.8
v -0.9 1.3 1.7
v -0.9 1.3 1.4
v -0.9 1.3 1.2
v -0.9 1.3 1.1
v -0.9 1.4 1.8
v -0.9 1.4 1.7
v -0.9 1.4 1.3
v -0.9 1.4 1.2
v -0.9 1.5 1.4
v -0.9 1.5 1.3
v -0.9 1.8 1.9
v -0.9 1.8 1.1
v -0.8 1.3 2
v -0.8 1.3 1.9
v -0.8 1.5 2
v -0.8 1.5 1.9
v -0.7 1.3 1.1
v -0.7 1.3 1
v -0.7 1.4 1.1
v -0.7 1.4 1
v -0.7 1.5 2
v -0.7 1.5 1.9
v -0.7 1.6 2
v -0.7 1.6 1.9
v -0.6 1.4 1.1
v -0.6 1.4 1
v -0.6 1.5 1.1
v -0.6 1.5 1
v -0.4 1.3 2
v -0.4 1.3 1.9
v -0.4 1.4 2
v -0.4 1.4 1.9
v -0.3 0.6 1.9
v -0.3 0.6 1.7
v -0.3 0.6 1.3
v -0.3 0.6 1.1
v -0.3 0.9 1.9
v -0.3 0.9 1.7
v -0.3 0.9 1.3
v -0.3 0.9 1.1
v -0.2 1.7 1.8
v -0.2 1.7 1.2
v -0.2 1.8 1.8
v -0.2 1.8 1.2
v -0.8 1.7 1.8
v -0.8 1.7 1.2
v -0.8 1.8 1.8
v -0.8 1.8 1.2
v -0.7 0.6 1.9
v -0.7 0.6 1.7
v -0.7 0.6 1.3
v -0.7 0.6 1.1
v -0.7 0.9 1.9
v -0.7 0.9 1.7
v -0.7 0.9 1.3
v -0.7 0.9 1.1
v -0.6 1.3 2
v -0.6 1.3 1.9
v -0.6 1.6 2
v -0.6 1.6 1.9
v -0.4 1.4 1.1
v -0.4 1.4 1
v -0.4 1.5 1.1
v -0.4 1.5 1
v -0.3 1.3 1.1
v -0.3 1.3 1
v -0.3 1.4 1.1
v -0.3 1.4 1
v -0.2 1.3 2
v -0.2 1.3 1.9
v -0.2 1.4 2
v -0.2 1.4 1.9
v -0.1 0.6 1.9
v -0.1 0.6 1.7
v -0.1 0.6 1.3
v -0.1 0.6 1.1
v -0.1 0.9 1.7
v -0.1 0.9 1.3
v -0.1 1.1 1.9
v -0.1 1.1 1.1
v -0.1 1.2 1.9
v -0.1 1.2 1.1
v -0.1 1.3 1.9
v -0.1 1.3 1.6
v -0.1 1.3 1.4
v -0.1 1.3 1.1
v -0.1 1.4 1.5
v -0.1 1.4 1.4
v -0.1 1.5 1.6
v -0.1 1.5 1.5
v -0.1 1.8 1.9
v -0.1 1.8 1.1
v 0 1.2 2
v 0 1.2 1
v 0 1.3 2
v 0 1.3 1.6
v 0 1.3 1.4
v 0 1.3 1
v 0 1.4 1.5
v 0 1.4 1.4
v 0 1.5 1.6
v 0 1.5 1.5
v -1 1.2 2
v -1 1.3 2
v -0.8 1.3 2
v -0.8 1.5 2
v -0.7 1.5 2
v -0.7 1.6 2
v -0.6 1.3 2
v -0.6 1.6 2
v -0.4 1.3 2
v -0.4 1.4 2
v -0.2 1.3 2
v -0.2 1.4 2
v 0 1.2 2
v 0 1.3 2
v -0.9 0.6 1.9
v -0.9 1.1 1.9
v -0.9 1.2 1.9
v -0.9 1.3 1.9
v -0.9 1.8 1.9
v -0.8 1.3 1.9
v -0.8 1.5 1.9
v -0.7 0.6 1.9
v -0.7 0.9 1.9
v -0.7 1.5 1.9
v -0.7 1.6 1.9
v -0.6 1.3 1.9
v -0.6 1.6 1.9
v -0.4 1.3 1.9
v -0.4 1.4 1.9
v -0.3 0.6 1.9
v -0.3 0.9 1.9
v -0.2 1.3 1.9
v -0.2 1.4 1.9
v -0.1 0.6 1.9
v -0.1 1.1 1.9
v -0.1 1.2 1.9
v -0.1 1.3 1.9
v -0.1 1.8 1.9
v -1 1.3 1.8
v -1 1.4 1.8
v -0.9 1.3 1.8
v -0.9 1.4 1.8
v -0.1 1.3 1.6
v -0.1 1.5 1.6
v 0 1.3 1.6
v 0 1.5 1.6
v -1 1.3 1.4
v -1 1.5 1.4
v -0.9 1.3 1.4
v -0.9 1.5 1.4
v -0.9 0.6 1.3
v -0.9 0.9 1.3
v -0.7 0.6 1.3
v -0.7 0.9 1.3
v -0.3 0.6 1.3
v -0.3 0.9 1.3
v -0.1 0.6 1.3
v -0.1 0.9 1.3
v -0.8 1.7 1.2
v -0.8 1.8 1.2
v -0.2 1.7 1.2
v -0.2 1.8 1.2
v -0.8 1.7 1.8
v -0.8 1.8 1.8
v -0.2 1.7 1.8
v -0.2 1.8 1.8
v -1 1.3 1.7
v -1 1.4 1.7
v -0.9 0.6 1.7
v -0.9 0.9 1.7
v -0.9 1.3 1.7
v -0.9 1.4 1.7
v -0.7 0.6 1.7
v -0.7 0.9 1.7
v -0.3 0.6 1.7
v -0.3 0.9 1.7
v -0.1 0.6 1.7
v -0.1 0.9 1.7
v -0.1 1.4 1.5
v -0.1 1.5 1.5
v 0 1.4 1.5
v 0 1.5 1.5
v -0.1 1.3 1.4
v -0.1 1.4 1.4
v 0 1.3 1.4
v 0 1.4 1.4
v -1 1.4 1.3
v -1 1.5 1.3
v -0.9 1.4 1.3
v -0.9 1.5 1.3
v -1 1.3 1.2
v -1 1.4 1.2
v -0.9 1.3 1.2
v -0.9 1.4 1.2
v -0.9 0.6 1.1
v -0.9 1.1 1.1
v -0.9 1.2 1.1
v -0.9 1.3 1.1
v -0.9 1.8 1.1
v -0.7 0.6 1.1
v -0.7 0.9 1.1
v -0.7 1.3 1.1
v -0.7 1.4 1.1
v -0.6 1.4 1.1
v -0.6 1.5 1.1
v -0.4 1.4 1.1
v -0.4 1.5 1.1
v -0.3 0.6 1.1
v -0.3 0.9 1.1
v -0.3 1.3 1.1
v -0.3 1.4 1.1
v -0.1 0.6 1.1
v -0.1 1.1 1.1
v -0.1 1.2 1.1
v -0.1 1.3 1.1
v -0.1 1.8 1.1
v -1 1.2 1
v -1 1.3 1
v -0.7 1.3 1
v -0.7 1.4 1
v -0.6 1.4 1
v -0.6 1.5 1
v -0.4 1.4 1
v -0.4 1.5 1
v -0.3 1.3 1
v -0.3 1.4 1
v 0 1.2 1
v 0 1.3 1
v -0.9 0.6 1.9
v -0.7 0.6 1.9
v -0.3 0.6 1.9
v -0.1 0.6 1.9
v -0.9 0.6 1.7
v -0.7 0.6 1.7
v -0.3 0.6 1.7
v -0.1 0.6 1.7
v -0.9 0.6 1.3
v -0.7 0.6 1.3
v -0.3 0.6 1.3
v -0.1 0.6 1.3
v -0.9 0.6 1.1
v -0.7 0.6 1.1
v -0.3 0.6 1.1
v -0.1 0.6 1.1
v -0.7 0.9 1.9
v -0.3 0.9 1.9
v -0.9 0.9 1.7
v -0.7 0.9 1.7
v -0.3 0.9 1.7
v -0.1 0.9 1.7
v -0.9 0.9 1.3
v -0.7 0.9 1.3
v -0.3 0.9 1.3
v -0.1 0.9 1.3
v -0.7 0.9 1.1
v -0.3 0.9 1.1
v -1 1.2 2
v 0 1.2 2
v -0.9 1.2 1.9
v -0.1 1.2 1.9
v -0.9 1.2 1.1
v -0.1 1.2 1.1
v -1 1.2 1
v 0 1.2 1
v -1 1.3 2
v -0.8 1.3 2
v -0.6 1.3 2
v -0.4 1.3 2
v -0.2 1.3 2
v 0 1.3 2
v -0.9 1.3 1.9
v -0.8 1.3 1.9
v -0.6 1.3 1.9
v -0.4 1.3 1.9
v -0.2 1.3 1.9
v -0.1 1.3 1.9
v -1 1.3 1.8
v -0.9 1.3 1.8
v -1 1.3 1.7
v -0.9 1.3 1.7
v -0.1 1.3 1.6
v 0 1.3 1.6
v -1 1.3 1.4
v -0.9 1.3 1.4
v -0.1 1.3 1.4
v 0 1.3 1.4
v -1 1.3 1.2
v -0.9 1.3 1.2
v -0.9 1.3 1.1
v -0.7 1.3 1.1
v -0.3 1.3 1.1
v -0.1 1.3 1.1
v -1 1.3 1
v -0.7 1.3 1
v -0.3 1.3 1
v 0 1.3 1
v -0.4 1.4 2
v -0.2 1.4 2
v -0.4 1.4 1.9
v -0.2 1.4 1.9
v -1 1.4 1.8
v -0.9 1.4 1.8
v -1 1.4 1.7
v -0.9 1.4 1.7
v -0.1 1.4 1.5
v 0 1.4 1.5
v -0.1 1.4 1.4
v 0 1.4 1.4
v -1 1.4 1.3
v -0.9 1.4 1.3
v -1 1.4 1.2
v -0.9 1.4 1.2
v -0.7 1.4 1.1
v -0.6 1.4 1.1
v -0.4 1.4 1.1
v -0.3 1.4 1.1
v -0.7 1.4 1
v -0.6 1.4 1
v -0.4 1.4 1
v -0.3 1.4 1
v -0.8 1.5 2
v -0.7 1.5 2
v -0.8 1.5 1.9
v -0.7 1.5 1.9
v -0.1 1.5 1.6
v 0 1.5 1.6
v -0.1 1.5 1.5
v 0 1.5 1.5
v -1 1.5 1.4
v -0.9 1.5 1.4
v -1 1.5 1.3
v -0.9 1.5 1.3
v -0.6 1.5 1.1
v -0.4 1.5 1.1
v -0.6 1.5 1
v -0.4 1.5 1
v -0.7 1.6 2
v -0.6 1.6 2
v -0.7 1.6 1.9
v -0.6 1.6 1.9
v -0.8 1.7 1.8
v -0.2 1.7 1.8
v -0.6 1.7 1.7
v -0.5 1.7 1.7
v -0.4 1.7 1.7
v -0.3 1.7 1.7
v -0.7 1.7 1.6
v -0.6 1.7 1.6
v -0.5 1.7 1.6
v -0.4 1.7 1.6
v -0.3 1.7 1.6
v -0.7 1.7 1.5
v -0.6 1.7 1.5
v -0.5 1.7 1.5
v -0.4 1.7 1.5
v -0.6 1.7 1.4
v -0.5 1.7 1.4
v -0.4 1.7 1.4
v -0.3 1.7 1.4
v -0.6 1.7 1.3
v -0.5 1.7 1.3
v -0.4 1.7 1.3
v -0.3 1.7 1.3
v -0.8 1.7 1.2
v -0.2 1.7 1.2
v -0.9 1.8 1.9
v -0.1 1.8 1.9
v -0.8 1.8 1.8
v -0.2 1.8 1.8
v -0.8 1.8 1.2
v -0.2 1.8 1.2
v -0.9 1.8 1.1
v -0.1 1.8 1.1

# faces
f 3/1/1 2/1/1 1/1/1
f 4/1/1 2/1/1 3/1/1
f 5/1/1 2/1/1 4/1/1
f 6/1/1 2/1/1 5/1/1
f 7/1/1 2/1/1 6/1/1
f 8/1/1 2/1/1 7/1/1
f 9/1/1 5/1/1 4/1/1
f 10/1/1 5/1/1 9/1/1
f 11/1/1 7/1/1 6/1/1
f 12/1/1 7/1/1 11/1/1
f 13/1/1 11/1/1 6/1/1
f 14/1/1 11/1/1 13/1/1
f 19/5/1 16/5/1 15/5/1
f 20/5/1 18/5/1 17/5/1
f 21/5/1 19/5/1 15/5/1
f 21/5/1 20/5/1 19/5/1
f 22/5/1 18/5/1 20/5/1
f 22/5/1 20/5/1 21/5/1
f 23/1/1 22/1/1 21/1/1
f 24/1/1 22/1/1 23/1/1
f 31/4/1 26/4/1 25/4/1
f 32/4/1 28/4/1 27/4/1
f 34/4/1 30/4/1 29/4/1
f 35/4/1 32/4/1 31/4/1
f 35/4/1 28/4/1 32/4/1
f 36/4/1 34/4/1 33/4/1
f 37/4/1 35/4/1 31/4/1
f 37/4/1 36/4/1 35/4/1
f 37/4/1 31/4/1 25/4/1
f 38/4/1 34/4/1 36/4/1
f 38/4/1 36/4/1 37/4/1
f 38/4/1 30/4/1 34/4/1
f 41/1/1 40/1/1 39/1/1
f 42/1/1 40/1/1 41/1/1
f 45/1/1 44/1/1 43/1/1
f 46/1/1 44/1/1 45/1/1
f 49/1/1 48/1/1 47/1/1
f 50/1/1 48/1/1 49/1/1
f 53/1/1 52/1/1 51/1/1
f 54/1/1 52/1/1 53/1/1
f 57/1/1 56/1/1 55/1/1
f 58/1/1 56/1/1 57/1/1
f 63/5/1 60/5/1 59/5/1
f 64/5/1 60/5/1 63/5/1
f 65/5/1 62/5/1 61/5/1
f 66/5/1 62/5/1 65/5/1
f 69/4/1 68/4/1 67/4/1
f 70/4/1 68/4/1 69/4/1
f 71/4/2 72/4/2 73/4/2
f 73/4/2 72/4/2 74/4/2
f 75/5/2 76/5/2 79/5/2
f 79/5/2 76/5/2 80/5/2
f 77/5/2 78/5/2 81/5/2
f 81/5/2 78/5/2 82/5/2
f 83/1/2 84/1/2 85/1/2
f 85/1/2 84/1/2 86/1/2
f 87/1/2 88/1/2 89/1/2
f 89/1/2 88/1/2 90/1/2
f 91/1/2 92/1/2 93/1/2
f 93/1/2 92/1/2 94/1/2
f 95/1/2 96/1/2 97/1/2
f 97/1/2 96/1/2 98/1/2
f 99/5/2 100/5/2 103/5/2
f 101/5/2 102/5/2 104/5/2
f 99/5/2 103/5/2 105/5/2
f 103/5/2 104/5/2 105/5/2
f 104/5/2 102/5/2 106/5/2
f 105/5/2 104/5/2 106/5/2
f 105/1/2 106/1/2 107/1/2
f 107/1/2 106/1/2 108/1/2
f 111/4/2 112/4/2 114/4/2
f 109/4/2 110/4/2 115/4/2
f 113/4/2 114/4/2 116/4/2
f 109/4/2 115/4/2 117/4/2
f 115/4/2 116/4/2 117/4/2
f 116/4/2 114/4/2 118/4/2
f 117/4/2 116/4/2 118/4/2
f 114/4/2 112/4/2 118/4/2
f 119/1/2 120/1/2 121/1/2
f 121/1/2 120/1/2 122/1/2
f 122/1/2 120/1/2 123/1/2
f 123/1/2 120/1/2 124/1/2
f 122/1/2 123/1/2 125/1/2
f 125/1/2 123/1/2 126/1/2
f 122/1/2 125/1/2 127/1/2
f 127/1/2 125/1/2 128/1/2
f 131/1/3 130/1/3 129/1/3
f 133/1/3 132/1/3 131/1/3
f 135/1/3 131/1/3 129/1/3
f 135/1/3 134/1/3 133/1/3
f 135/1/3 133/1/3 131/1/3
f 136/1/3 134/1/3 135/1/3
f 137/1/3 135/1/3 129/1/3
f 139/1/3 137/1/3 129/1/3
f 139/1/3 138/1/3 137/1/3
f 140/1/3 138/1/3 139/1/3
f 141/1/3 139/1/3 129/1/3
f 142/1/3 139/1/3 141/1/3
f 148/4/3 147/4/3 146/4/3
f 149/4/3 147/4/3 148/4/3
f 150/5/3 144/5/3 143/5/3
f 151/5/3 144/5/3 150/5/3
f 152/4/3 147/4/3 149/4/3
f 153/4/3 147/4/3 152/4/3
f 155/4/3 147/4/3 153/4/3
f 156/4/3 155/4/3 154/4/3
f 157/4/3 155/4/3 156/4/3
f 159/5/3 144/5/3 151/5/3
f 161/4/3 155/4/3 157/4/3
f 162/5/3 159/5/3 158/5/3
f 163/1/3 145/1/3 144/1/3
f 163/5/3 159/5/3 162/5/3
f 163/5/3 144/5/3 159/5/3
f 164/1/3 145/1/3 163/1/3
f 165/4/3 161/4/3 160/4/3
f 166/4/3 147/4/3 155/4/3
f 166/4/3 161/4/3 165/4/3
f 166/4/3 155/4/3 161/4/3
f 169/1/3 168/1/3 167/1/3
f 170/1/3 168/1/3 169/1/3
f 173/1/3 172/1/3 171/1/3
f 174/1/3 172/1/3 173/1/3
f 177/1/3 176/1/3 175/1/3
f 178/1/3 176/1/3 177/1/3
f 181/5/3 180/5/3 179/5/3
f 182/5/3 180/5/3 181/5/3
f 185/5/3 184/5/3 183/5/3
f 186/5/3 184/5/3 185/5/3
f 189/4/3 188/4/3 187/4/3
f 190/4/3 188/4/3 189/4/3
f 191/4/4 192/4/4 193/4/4
f 193/4/4 192/4/4 194/4/4
f 195/1/4 196/1/4 199/1/4
f 199/1/4 196/1/4 200/1/4
f 197/5/4 198/5/4 201/5/4
f 201/5/4 198/5/4 202/5/4
f 203/5/4 204/5/4 205/5/4
f 205/5/4 204/5/4 206/5/4
f 207/1/4 208/1/4 209/1/4
f 209/1/4 208/1/4 210/1/4
f 211/1/4 212/1/4 213/1/4
f 213/1/4 212/1/4 214/1/4
f 215/1/4 216/1/4 217/1/4
f 217/1/4 216/1/4 218/1/4
f 219/1/4 220/1/4 221/1/4
f 221/1/4 220/1/4 222/1/4
f 223/5/4 224/5/4 228/5/4
f 228/5/4 224/5/4 229/5/4
f 226/4/4 227/4/4 230/4/4
f 230/4/4 227/4/4 231/4/4
f 231/4/4 227/4/4 232/4/4
f 232/4/4 227/4/4 233/4/4
f 233/4/4 227/4/4 235/4/4
f 229/5/4 224/5/4 237/5/4
f 234/4/4 235/4/4 239/4/4
f 236/5/4 237/5/4 240/5/4
f 224/1/4 225/1/4 241/1/4
f 240/5/4 237/5/4 241/5/4
f 237/5/4 224/5/4 241/5/4
f 241/1/4 225/1/4 242/1/4
f 238/4/4 239/4/4 243/4/4
f 235/4/4 227/4/4 244/4/4
f 243/4/4 239/4/4 244/4/4
f 239/4/4 235/4/4 244/4/4
f 245/1/4 246/1/4 247/1/4
f 247/1/4 248/1/4 249/1/4
f 247/1/4 249/1/4 251/1/4
f 249/1/4 250/1/4 251/1/4
f 251/1/4 250/1/4 252/1/4
f 245/1/4 247/1/4 253/1/4
f 247/1/4 251/1/4 253/1/4
f 253/1/4 251/1/4 254/1/4
f 245/1/4 253/1/4 255/1/4
f 255/1/4 253/1/4 256/1/4
f 261/5/5 258/5/5 257/5/5
f 262/5/5 258/5/5 261/5/5
f 263/5/5 260/5/5 259/5/5
f 264/5/5 260/5/5 263/5/5
f 269/5/5 266/5/5 265/5/5
f 270/5/5 266/5/5 269/5/5
f 271/5/5 268/5/5 267/5/5
f 272/5/5 268/5/5 271/5/5
f 276/5/5 274/5/5 273/5/5
f 277/5/5 274/5/5 276/5/5
f 279/5/5 276/5/5 275/5/5
f 279/5/5 278/5/5 277/5/5
f 279/5/5 277/5/5 276/5/5
f 280/5/5 278/5/5 279/5/5
f 281/5/5 278/5/5 280/5/5
f 282/5/5 278/5/5 281/5/5
f 283/5/5 281/5/5 280/5/5
f 284/5/5 281/5/5 283/5/5
f 287/1/5 286/1/5 285/1/5
f 288/1/5 286/1/5 287/1/5
f 289/1/5 287/1/5 285/1/5
f 290/1/5 286/1/5 288/1/5
f 291/1/5 289/1/5 285/1/5
f 291/1/5 290/1/5 289/1/5
f 292/1/5 286/1/5 290/1/5
f 292/1/5 290/1/5 291/1/5
f 293/1/6 294/1/6 299/1/6
f 299/1/6 294/1/6 300/1/6
f 295/1/6 296/1/6 301/1/6
f 301/1/6 296/1/6 302/1/6
f 297/1/6 298/1/6 303/1/6
f 303/1/6 298/1/6 304/1/6
f 293/1/6 299/1/6 305/1/6
f 305/1/6 299/1/6 306/1/6
f 304/1/6 298/1/6 309/1/6
f 309/1/6 298/1/6 310/1/6
f 307/1/6 308/1/6 311/1/6
f 311/1/6 308/1/6 312/1/6
f 315/1/6 316/1/6 317/1/6
f 313/1/6 314/1/6 320/1/6
f 317/1/6 318/1/6 321/1/6
f 315/1/6 317/1/6 321/1/6
f 321/1/6 318/1/6 322/1/6
f 319/1/6 320/1/6 323/1/6
f 320/1/6 314/1/6 324/1/6
f 323/1/6 320/1/6 324/1/6
f 325/1/6 326/1/6 327/1/6
f 327/1/6 326/1/6 328/1/6
f 329/1/6 330/1/6 331/1/6
f 331/1/6 330/1/6 332/1/6
f 333/1/6 334/1/6 335/1/6
f 335/1/6 334/1/6 336/1/6
f 337/1/6 338/1/6 339/1/6
f 339/1/6 338/1/6 340/1/6
f 341/1/6 342/1/6 345/1/6
f 345/1/6 342/1/6 346/1/6
f 343/1/6 344/1/6 347/1/6
f 347/1/6 344/1/6 348/1/6
f 349/1/6 350/1/6 351/1/6
f 351/1/6 350/1/6 352/1/6
f 353/1/6 354/1/6 355/1/6
f 355/1/6 354/1/6 356/1/6
f 357/1/6 358/1/6 359/1/6
f 359/1/6 358/1/6 360/1/6
f 361/1/6 362/1/6 363/1/6
f 363/1/6 362/1/6 364/1/6
f 365/1/6 366/1/6 367/1/6
f 367/1/6 366/1/6 368/1/6
f 369/2/6 370/2/6 371/2/6
f 371/2/6 370/2/6 372/2/6
f 372/2/6 370/2/6 373/2/6
f 373/2/6 370/2/6 374/2/6
f 369/2/6 371/2/6 375/2/6
f 371/3/6 372/3/6 376/3/6
f 375/2/6 371/2/6 376/2/6
f 372/2/6 373/2/6 377/2/6
f 376/3/6 372/3/6 377/3/6
f 373/3/6 374/3/6 378/3/6
f 377/2/6 373/2/6 378/2/6
f 374/2/6 370/2/6 379/2/6
f 378/3/6 374/3/6 379/3/6
f 369/2/6 375/2/6 380/2/6
f 375/3/6 376/3/6 380/3/6
f 376/2/6 377/2/6 381/2/6
f 380/3/6 376/3/6 381/3/6
f 377/3/6 378/3/6 382/3/6
f 381/2/6 377/2/6 382/2/6
f 378/2/6 379/2/6 383/2/6
f 382/3/6 378/3/6 383/3/6
f 380/2/6 381/2/6 384/2/6
f 381/2/6 382/2/6 384/2/6
f 382/2/6 383/2/6 384/2/6
f 384/2/6 383/2/6 385/2/6
f 383/2/6 379/2/6 386/2/6
f 385/2/6 383/2/6 386/2/6
f 379/2/6 370/2/6 387/2/6
f 386/2/6 379/2/6 387/2/6
f 384/3/6 385/3/6 388/3/6
f 380/2/6 384/2/6 388/2/6
f 385/2/6 386/2/6 389/2/6
f 388/3/6 385/3/6 389/3/6
f 386/3/6 387/3/6 390/3/6
f 389/2/6 386/2/6 390/2/6
f 387/2/6 370/2/6 391/2/6
f 390/3/6 387/3/6 391/3/6
f 389/2/6 390/2/6 392/2/6
f 380/2/6 388/2/6 392/2/6
f 390/2/6 391/2/6 392/2/6
f 388/2/6 389/2/6 392/2/6
f 369/2/6 380/2/6 392/2/6
f 391/2/6 370/2/6 393/2/6
f 392/2/6 391/2/6 393/2/6
f 394/4/6 395/4/6 396/4/6
f 396/4/6 395/4/6 397/4/6
f 394/4/6 396/4/6 398/4/6
f 397/4/6 395/4/6 399/4/6
f 394/4/6 398/4/6 400/4/6
f 398/4/6 399/4/6 400/4/6
f 399/4/6 395/4/6 401/4/6
f 400/4/6 399/4/6 401/4/6
