# MagicaVoxel @ Ephtracy

# group
o 

# material
mtllib redpot.mtl
usemtl palette

# normals
vn -1 0 0
vn 1 0 0
vn 0 0 1
vn 0 0 -1
vn 0 -1 0
vn 0 1 0

# texcoords
vt 0.0917969 0.5
vt 0.806641 0.5
vt 0.951172 0.5

# verts
v -1 1.2 2
v -1 1.2 1
v -1 1.3 2
v -1 1.3 1.8
v -1 1.3 1.7
v -1 1.3 1.4
v -1 1.3 1.2
v -1 1.3 1
v -1 1.4 1.8
v -1 1.4 1.7
v -1 1.4 1.3
v -1 1.4 1.2
v -1 1.5 1.4
v -1 1.5 1.3
v -0.9 0.6 1.9
v -0.9 0.6 1.7
v -0.9 0.6 1.3
v -0.9 0.6 1.1
v -0.9 0.9 1.7
v -0.9 0.9 1.3
v -0.9 1.1 1.9
v -0.9 1.1 1.1
v -0.9 1.2 1.9
v -0.9 1.2 1.1
v -0.9 1.3 1.9
v -0.9 1.3 1.8
v -0.9 1.3 1.7
v -0.9 1.3 1.4
v -0.9 1.3 1.2
v -0.9 1.3 1.1
v -0.9 1.4 1.8
v -0.9 1.4 1.7
v -0.9 1.4 1.3
v -0.9 1.4 1.2
v -0.9 1.5 1.4
v -0.9 1.5 1.3
v -0.9 1.8 1.9
v -0.9 1.8 1.1
v -0.8 1.3 2
v -0.8 1.3 1.9
v -0.8 1.5 2
v -0.8 1.5 1.9
v -0.7 1.3 1.1
v -0.7 1.3 1
v -0.7 1.4 1.1
v -0.7 1.4 1
v -0.7 1.5 2
v -0.7 1.5 1.9
v -0.7 1.6 2
v -0.7 1.6 1.9
v -0.6 1.4 1.1
v -0.6 1.4 1
v -0.6 1.5 1.1
v -0.6 1.5 1
v -0.4 1.3 2
v -0.4 1.3 1.9
v -0.4 1.4 2
v -0.4 1.4 1.9
v -0.3 0.6 1.9
v -0.3 0.6 1.7
v -0.3 0.6 1.3
v -0.3 0.6 1.1
v -0.3 0.9 1.9
v -0.3 0.9 1.7
v -0.3 0.9 1.3
v -0.3 0.9 1.1
v -0.2 1.5 1.8
v -0.2 1.5 1.2
v -0.2 1.8 1.8
v -0.2 1.8 1.2
v -0.8 1.5 1.8
v -0.8 1.5 1.2
v -0.8 1.8 1.8
v -0.8 1.8 1.2
v -0.7 0.6 1.9
v -0.7 0.6 1.7
v -0.7 0.6 1.3
v -0.7 0.6 1.1
v -0.7 0.9 1.9
v -0.7 0.9 1.7
v -0.7 0.9 1.3
v -0.7 0.9 1.1
v -0.6 1.3 2
v -0.6 1.3 1.9
v -0.6 1.6 2
v -0.6 1.6 1.9
v -0.4 1.4 1.1
v -0.4 1.4 1
v -0.4 1.5 1.1
v -0.4 1.5 1
v -0.3 1.3 1.1
v -0.3 1.3 1
v -0.3 1.4 1.1
v -0.3 1.4 1
v -0.2 1.3 2
v -0.2 1.3 1.9
v -0.2 1.4 2
v -0.2 1.4 1.9
v -0.1 0.6 1.9
v -0.1 0.6 1.7
v -0.1 0.6 1.3
v -0.1 0.6 1.1
v -0.1 0.9 1.7
v -0.1 0.9 1.3
v -0.1 1.1 1.9
v -0.1 1.1 1.1
v -0.1 1.2 1.9
v -0.1 1.2 1.1
v -0.1 1.3 1.9
v -0.1 1.3 1.6
v -0.1 1.3 1.4
v -0.1 1.3 1.1
v -0.1 1.4 1.5
v -0.1 1.4 1.4
v -0.1 1.5 1.6
v -0.1 1.5 1.5
v -0.1 1.8 1.9
v -0.1 1.8 1.1
v 0 1.2 2
v 0 1.2 1
v 0 1.3 2
v 0 1.3 1.6
v 0 1.3 1.4
v 0 1.3 1
v 0 1.4 1.5
v 0 1.4 1.4
v 0 1.5 1.6
v 0 1.5 1.5
v -1 1.2 2
v -1 1.3 2
v -0.8 1.3 2
v -0.8 1.5 2
v -0.7 1.5 2
v -0.7 1.6 2
v -0.6 1.3 2
v -0.6 1.6 2
v -0.4 1.3 2
v -0.4 1.4 2
v -0.2 1.3 2
v -0.2 1.4 2
v 0 1.2 2
v 0 1.3 2
v -0.9 0.6 1.9
v -0.9 1.1 1.9
v -0.9 1.2 1.9
v -0.9 1.3 1.9
v -0.9 1.8 1.9
v -0.8 1.3 1.9
v -0.8 1.5 1.9
v -0.7 0.6 1.9
v -0.7 0.9 1.9
v -0.7 1.5 1.9
v -0.7 1.6 1.9
v -0.6 1.3 1.9
v -0.6 1.6 1.9
v -0.4 1.3 1.9
v -0.4 1.4 1.9
v -0.3 0.6 1.9
v -0.3 0.9 1.9
v -0.2 1.3 1.9
v -0.2 1.4 1.9
v -0.1 0.6 1.9
v -0.1 1.1 1.9
v -0.1 1.2 1.9
v -0.1 1.3 1.9
v -0.1 1.8 1.9
v -1 1.3 1.8
v -1 1.4 1.8
v -0.9 1.3 1.8
v -0.9 1.4 1.8
v -0.1 1.3 1.6
v -0.1 1.5 1.6
v 0 1.3 1.6
v 0 1.5 1.6
v -1 1.3 1.4
v -1 1.5 1.4
v -0.9 1.3 1.4
v -0.9 1.5 1.4
v -0.9 0.6 1.3
v -0.9 0.9 1.3
v -0.7 0.6 1.3
v -0.7 0.9 1.3
v -0.3 0.6 1.3
v -0.3 0.9 1.3
v -0.1 0.6 1.3
v -0.1 0.9 1.3
v -0.8 1.5 1.2
v -0.8 1.8 1.2
v -0.2 1.5 1.2
v -0.2 1.8 1.2
v -0.8 1.5 1.8
v -0.8 1.8 1.8
v -0.2 1.5 1.8
v -0.2 1.8 1.8
v -1 1.3 1.7
v -1 1.4 1.7
v -0.9 0.6 1.7
v -0.9 0.9 1.7
v -0.9 1.3 1.7
v -0.9 1.4 1.7
v -0.7 0.6 1.7
v -0.7 0.9 1.7
v -0.3 0.6 1.7
v -0.3 0.9 1.7
v -0.1 0.6 1.7
v -0.1 0.9 1.7
v -0.1 1.4 1.5
v -0.1 1.5 1.5
v 0 1.4 1.5
v 0 1.5 1.5
v -0.1 1.3 1.4
v -0.1 1.4 1.4
v 0 1.3 1.4
v 0 1.4 1.4
v -1 1.4 1.3
v -1 1.5 1.3
v -0.9 1.4 1.3
v -0.9 1.5 1.3
v -1 1.3 1.2
v -1 1.4 1.2
v -0.9 1.3 1.2
v -0.9 1.4 1.2
v -0.9 0.6 1.1
v -0.9 1.1 1.1
v -0.9 1.2 1.1
v -0.9 1.3 1.1
v -0.9 1.8 1.1
v -0.7 0.6 1.1
v -0.7 0.9 1.1
v -0.7 1.3 1.1
v -0.7 1.4 1.1
v -0.6 1.4 1.1
v -0.6 1.5 1.1
v -0.4 1.4 1.1
v -0.4 1.5 1.1
v -0.3 0.6 1.1
v -0.3 0.9 1.1
v -0.3 1.3 1.1
v -0.3 1.4 1.1
v -0.1 0.6 1.1
v -0.1 1.1 1.1
v -0.1 1.2 1.1
v -0.1 1.3 1.1
v -0.1 1.8 1.1
v -1 1.2 1
v -1 1.3 1
v -0.7 1.3 1
v -0.7 1.4 1
v -0.6 1.4 1
v -0.6 1.5 1
v -0.4 1.4 1
v -0.4 1.5 1
v -0.3 1.3 1
v -0.3 1.4 1
v 0 1.2 1
v 0 1.3 1
v -0.9 0.6 1.9
v -0.7 0.6 1.9
v -0.3 0.6 1.9
v -0.1 0.6 1.9
v -0.9 0.6 1.7
v -0.7 0.6 1.7
v -0.3 0.6 1.7
v -0.1 0.6 1.7
v -0.9 0.6 1.3
v -0.7 0.6 1.3
v -0.3 0.6 1.3
v -0.1 0.6 1.3
v -0.9 0.6 1.1
v -0.7 0.6 1.1
v -0.3 0.6 1.1
v -0.1 0.6 1.1
v -0.7 0.9 1.9
v -0.3 0.9 1.9
v -0.9 0.9 1.7
v -0.7 0.9 1.7
v -0.3 0.9 1.7
v -0.1 0.9 1.7
v -0.9 0.9 1.3
v -0.7 0.9 1.3
v -0.3 0.9 1.3
v -0.1 0.9 1.3
v -0.7 0.9 1.1
v -0.3 0.9 1.1
v -1 1.2 2
v 0 1.2 2
v -0.9 1.2 1.9
v -0.1 1.2 1.9
v -0.9 1.2 1.1
v -0.1 1.2 1.1
v -1 1.2 1
v 0 1.2 1
v -1 1.3 2
v -0.8 1.3 2
v -0.6 1.3 2
v -0.4 1.3 2
v -0.2 1.3 2
v 0 1.3 2
v -0.9 1.3 1.9
v -0.8 1.3 1.9
v -0.6 1.3 1.9
v -0.4 1.3 1.9
v -0.2 1.3 1.9
v -0.1 1.3 1.9
v -1 1.3 1.8
v -0.9 1.3 1.8
v -1 1.3 1.7
v -0.9 1.3 1.7
v -0.1 1.3 1.6
v 0 1.3 1.6
v -1 1.3 1.4
v -0.9 1.3 1.4
v -0.1 1.3 1.4
v 0 1.3 1.4
v -1 1.3 1.2
v -0.9 1.3 1.2
v -0.9 1.3 1.1
v -0.7 1.3 1.1
v -0.3 1.3 1.1
v -0.1 1.3 1.1
v -1 1.3 1
v -0.7 1.3 1
v -0.3 1.3 1
v 0 1.3 1
v -0.4 1.4 2
v -0.2 1.4 2
v -0.4 1.4 1.9
v -0.2 1.4 1.9
v -1 1.4 1.8
v -0.9 1.4 1.8
v -1 1.4 1.7
v -0.9 1.4 1.7
v -0.1 1.4 1.5
v 0 1.4 1.5
v -0.1 1.4 1.4
v 0 1.4 1.4
v -1 1.4 1.3
v -0.9 1.4 1.3
v -1 1.4 1.2
v -0.9 1.4 1.2
v -0.7 1.4 1.1
v -0.6 1.4 1.1
v -0.4 1.4 1.1
v -0.3 1.4 1.1
v -0.7 1.4 1
v -0.6 1.4 1
v -0.4 1.4 1
v -0.3 1.4 1
v -0.8 1.5 2
v -0.7 1.5 2
v -0.8 1.5 1.9
v -0.7 1.5 1.9
v -0.8 1.5 1.8
v -0.2 1.5 1.8
v -0.1 1.5 1.6
v 0 1.5 1.6
v -0.1 1.5 1.5
v 0 1.5 1.5
v -1 1.5 1.4
v -0.9 1.5 1.4
v -1 1.5 1.3
v -0.9 1.5 1.3
v -0.8 1.5 1.2
v -0.2 1.5 1.2
v -0.6 1.5 1.1
v -0.4 1.5 1.1
v -0.6 1.5 1
v -0.4 1.5 1
v -0.7 1.6 2
v -0.6 1.6 2
v -0.7 1.6 1.9
v -0.6 1.6 1.9
v -0.9 1.8 1.9
v -0.1 1.8 1.9
v -0.8 1.8 1.8
v -0.2 1.8 1.8
v -0.8 1.8 1.2
v -0.2 1.8 1.2
v -0.9 1.8 1.1
v -0.1 1.8 1.1

# faces
f 3/1/1 2/1/1 1/1/1
f 4/1/1 2/1/1 3/1/1
f 5/1/1 2/1/1 4/1/1
f 6/1/1 2/1/1 5/1/1
f 7/1/1 2/1/1 6/1/1
f 8/1/1 2/1/1 7/1/1
f 9/1/1 5/1/1 4/1/1
f 10/1/1 5/1/1 9/1/1
f 11/1/1 7/1/1 6/1/1
f 12/1/1 7/1/1 11/1/1
f 13/1/1 11/1/1 6/1/1
f 14/1/1 11/1/1 13/1/1
f 19/3/1 16/3/1 15/3/1
f 20/3/1 18/3/1 17/3/1
f 21/3/1 19/3/1 15/3/1
f 21/3/1 20/3/1 19/3/1
f 22/3/1 18/3/1 20/3/1
f 22/3/1 20/3/1 21/3/1
f 23/1/1 22/1/1 21/1/1
f 24/1/1 22/1/1 23/1/1
f 31/2/1 26/2/1 25/2/1
f 32/2/1 28/2/1 27/2/1
f 34/2/1 30/2/1 29/2/1
f 35/2/1 32/2/1 31/2/1
f 35/2/1 28/2/1 32/2/1
f 36/2/1 34/2/1 33/2/1
f 37/2/1 35/2/1 31/2/1
f 37/2/1 36/2/1 35/2/1
f 37/2/1 31/2/1 25/2/1
f 38/2/1 34/2/1 36/2/1
f 38/2/1 36/2/1 37/2/1
f 38/2/1 30/2/1 34/2/1
f 41/1/1 40/1/1 39/1/1
f 42/1/1 40/1/1 41/1/1
f 45/1/1 44/1/1 43/1/1
f 46/1/1 44/1/1 45/1/1
f 49/1/1 48/1/1 47/1/1
f 50/1/1 48/1/1 49/1/1
f 53/1/1 52/1/1 51/1/1
f 54/1/1 52/1/1 53/1/1
f 57/1/1 56/1/1 55/1/1
f 58/1/1 56/1/1 57/1/1
f 63/3/1 60/3/1 59/3/1
f 64/3/1 60/3/1 63/3/1
f 65/3/1 62/3/1 61/3/1
f 66/3/1 62/3/1 65/3/1
f 69/2/1 68/2/1 67/2/1
f 70/2/1 68/2/1 69/2/1
f 71/2/2 72/2/2 73/2/2
f 73/2/2 72/2/2 74/2/2
f 75/3/2 76/3/2 79/3/2
f 79/3/2 76/3/2 80/3/2
f 77/3/2 78/3/2 81/3/2
f 81/3/2 78/3/2 82/3/2
f 83/1/2 84/1/2 85/1/2
f 85/1/2 84/1/2 86/1/2
f 87/1/2 88/1/2 89/1/2
f 89/1/2 88/1/2 90/1/2
f 91/1/2 92/1/2 93/1/2
f 93/1/2 92/1/2 94/1/2
f 95/1/2 96/1/2 97/1/2
f 97/1/2 96/1/2 98/1/2
f 99/3/2 100/3/2 103/3/2
f 101/3/2 102/3/2 104/3/2
f 99/3/2 103/3/2 105/3/2
f 103/3/2 104/3/2 105/3/2
f 104/3/2 102/3/2 106/3/2
f 105/3/2 104/3/2 106/3/2
f 105/1/2 106/1/2 107/1/2
f 107/1/2 106/1/2 108/1/2
f 111/2/2 112/2/2 114/2/2
f 109/2/2 110/2/2 115/2/2
f 113/2/2 114/2/2 116/2/2
f 109/2/2 115/2/2 117/2/2
f 115/2/2 116/2/2 117/2/2
f 116/2/2 114/2/2 118/2/2
f 117/2/2 116/2/2 118/2/2
f 114/2/2 112/2/2 118/2/2
f 119/1/2 120/1/2 121/1/2
f 121/1/2 120/1/2 122/1/2
f 122/1/2 120/1/2 123/1/2
f 123/1/2 120/1/2 124/1/2
f 122/1/2 123/1/2 125/1/2
f 125/1/2 123/1/2 126/1/2
f 122/1/2 125/1/2 127/1/2
f 127/1/2 125/1/2 128/1/2
f 131/1/3 130/1/3 129/1/3
f 133/1/3 132/1/3 131/1/3
f 135/1/3 131/1/3 129/1/3
f 135/1/3 134/1/3 133/1/3
f 135/1/3 133/1/3 131/1/3
f 136/1/3 134/1/3 135/1/3
f 137/1/3 135/1/3 129/1/3
f 139/1/3 137/1/3 129/1/3
f 139/1/3 138/1/3 137/1/3
f 140/1/3 138/1/3 139/1/3
f 141/1/3 139/1/3 129/1/3
f 142/1/3 139/1/3 141/1/3
f 148/2/3 147/2/3 146/2/3
f 149/2/3 147/2/3 148/2/3
f 150/3/3 144/3/3 143/3/3
f 151/3/3 144/3/3 150/3/3
f 152/2/3 147/2/3 149/2/3
f 153/2/3 147/2/3 152/2/3
f 155/2/3 147/2/3 153/2/3
f 156/2/3 155/2/3 154/2/3
f 157/2/3 155/2/3 156/2/3
f 159/3/3 144/3/3 151/3/3
f 161/2/3 155/2/3 157/2/3
f 162/3/3 159/3/3 158/3/3
f 163/1/3 145/1/3 144/1/3
f 163/3/3 159/3/3 162/3/3
f 163/3/3 144/3/3 159/3/3
f 164/1/3 145/1/3 163/1/3
f 165/2/3 161/2/3 160/2/3
f 166/2/3 147/2/3 155/2/3
f 166/2/3 161/2/3 165/2/3
f 166/2/3 155/2/3 161/2/3
f 169/1/3 168/1/3 167/1/3
f 170/1/3 168/1/3 169/1/3
f 173/1/3 172/1/3 171/1/3
f 174/1/3 172/1/3 173/1/3
f 177/1/3 176/1/3 175/1/3
f 178/1/3 176/1/3 177/1/3
f 181/3/3 180/3/3 179/3/3
f 182/3/3 180/3/3 181/3/3
f 185/3/3 184/3/3 183/3/3
f 186/3/3 184/3/3 185/3/3
f 189/2/3 188/2/3 187/2/3
f 190/2/3 188/2/3 189/2/3
f 191/2/4 192/2/4 193/2/4
f 193/2/4 192/2/4 194/2/4
f 195/1/4 196/1/4 199/1/4
f 199/1/4 196/1/4 200/1/4
f 197/3/4 198/3/4 201/3/4
f 201/3/4 198/3/4 202/3/4
f 203/3/4 204/3/4 205/3/4
f 205/3/4 204/3/4 206/3/4
f 207/1/4 208/1/4 209/1/4
f 209/1/4 208/1/4 210/1/4
f 211/1/4 212/1/4 213/1/4
f 213/1/4 212/1/4 214/1/4
f 215/1/4 216/1/4 217/1/4
f 217/1/4 216/1/4 218/1/4
f 219/1/4 220/1/4 221/1/4
f 221/1/4 220/1/4 222/1/4
f 223/3/4 224/3/4 228/3/4
f 228/3/4 224/3/4 229/3/4
f 226/2/4 227/2/4 230/2/4
f 230/2/4 227/2/4 231/2/4
f 231/2/4 227/2/4 232/2/4
f 232/2/4 227/2/4 233/2/4
f 233/2/4 227/2/4 235/2/4
f 229/3/4 224/3/4 237/3/4
f 234/2/4 235/2/4 239/2/4
f 236/3/4 237/3/4 240/3/4
f 224/1/4 225/1/4 241/1/4
f 240/3/4 237/3/4 241/3/4
f 237/3/4 224/3/4 241/3/4
f 241/1/4 225/1/4 242/1/4
f 238/2/4 239/2/4 243/2/4
f 235/2/4 227/2/4 244/2/4
f 243/2/4 239/2/4 244/2/4
f 239/2/4 235/2/4 244/2/4
f 245/1/4 246/1/4 247/1/4
f 247/1/4 248/1/4 249/1/4
f 247/1/4 249/1/4 251/1/4
f 249/1/4 250/1/4 251/1/4
f 251/1/4 250/1/4 252/1/4
f 245/1/4 247/1/4 253/1/4
f 247/1/4 251/1/4 253/1/4
f 253/1/4 251/1/4 254/1/4
f 245/1/4 253/1/4 255/1/4
f 255/1/4 253/1/4 256/1/4
f 261/3/5 258/3/5 257/3/5
f 262/3/5 258/3/5 261/3/5
f 263/3/5 260/3/5 259/3/5
f 264/3/5 260/3/5 263/3/5
f 269/3/5 266/3/5 265/3/5
f 270/3/5 266/3/5 269/3/5
f 271/3/5 268/3/5 267/3/5
f 272/3/5 268/3/5 271/3/5
f 276/3/5 274/3/5 273/3/5
f 277/3/5 274/3/5 276/3/5
f 279/3/5 276/3/5 275/3/5
f 279/3/5 278/3/5 277/3/5
f 279/3/5 277/3/5 276/3/5
f 280/3/5 278/3/5 279/3/5
f 281/3/5 278/3/5 280/3/5
f 282/3/5 278/3/5 281/3/5
f 283/3/5 281/3/5 280/3/5
f 284/3/5 281/3/5 283/3/5
f 287/1/5 286/1/5 285/1/5
f 288/1/5 286/1/5 287/1/5
f 289/1/5 287/1/5 285/1/5
f 290/1/5 286/1/5 288/1/5
f 291/1/5 289/1/5 285/1/5
f 291/1/5 290/1/5 289/1/5
f 292/1/5 286/1/5 290/1/5
f 292/1/5 290/1/5 291/1/5
f 293/1/6 294/1/6 299/1/6
f 299/1/6 294/1/6 300/1/6
f 295/1/6 296/1/6 301/1/6
f 301/1/6 296/1/6 302/1/6
f 297/1/6 298/1/6 303/1/6
f 303/1/6 298/1/6 304/1/6
f 293/1/6 299/1/6 305/1/6
f 305/1/6 299/1/6 306/1/6
f 304/1/6 298/1/6 309/1/6
f 309/1/6 298/1/6 310/1/6
f 307/1/6 308/1/6 311/1/6
f 311/1/6 308/1/6 312/1/6
f 315/1/6 316/1/6 317/1/6
f 313/1/6 314/1/6 320/1/6
f 317/1/6 318/1/6 321/1/6
f 315/1/6 317/1/6 321/1/6
f 321/1/6 318/1/6 322/1/6
f 319/1/6 320/1/6 323/1/6
f 320/1/6 314/1/6 324/1/6
f 323/1/6 320/1/6 324/1/6
f 325/1/6 326/1/6 327/1/6
f 327/1/6 326/1/6 328/1/6
f 329/1/6 330/1/6 331/1/6
f 331/1/6 330/1/6 332/1/6
f 333/1/6 334/1/6 335/1/6
f 335/1/6 334/1/6 336/1/6
f 337/1/6 338/1/6 339/1/6
f 339/1/6 338/1/6 340/1/6
f 341/1/6 342/1/6 345/1/6
f 345/1/6 342/1/6 346/1/6
f 343/1/6 344/1/6 347/1/6
f 347/1/6 344/1/6 348/1/6
f 349/1/6 350/1/6 351/1/6
f 351/1/6 350/1/6 352/1/6
f 355/1/6 356/1/6 357/1/6
f 357/1/6 356/1/6 358/1/6
f 359/1/6 360/1/6 361/1/6
f 361/1/6 360/1/6 362/1/6
f 353/2/6 354/2/6 363/2/6
f 363/2/6 354/2/6 364/2/6
f 365/1/6 366/1/6 367/1/6
f 367/1/6 366/1/6 368/1/6
f 369/1/6 370/1/6 371/1/6
f 371/1/6 370/1/6 372/1/6
f 373/2/6 374/2/6 375/2/6
f 375/2/6 374/2/6 376/2/6
f 373/2/6 375/2/6 377/2/6
f 376/2/6 374/2/6 378/2/6
f 373/2/6 377/2/6 379/2/6
f 377/2/6 378/2/6 379/2/6
f 378/2/6 374/2/6 380/2/6
f 379/2/6 378/2/6 380/2/6
